<svg width="200" height="200" viewBox="0 0 200 200" xmlns="http://www.w3.org/2000/svg">
  <defs>
    <pattern id="leafPattern" x="0" y="0" width="100" height="100" patternUnits="userSpaceOnUse">
      <path d="M50 50c0-20 15-35 35-35s35 15 35 35-15 35-35 35-35-15-35-35zm0 0c0 20-15 35-35 35s-35-15-35-35 15-35 35-35 35 15 35 35z" 
            fill="none" 
            stroke="#4A6741" 
            stroke-width="1.5" 
            stroke-opacity="0.15"/>
      <path d="M50 50q15-15 35 0" stroke="#4A6741" stroke-width="1" stroke-opacity="0.1" fill="none"/>
      <path d="M50 50q-15 15-35 0" stroke="#4A6741" stroke-width="1" stroke-opacity="0.1" fill="none"/>
    </pattern>
  </defs>
  <rect width="100%" height="100%" fill="url(#leafPattern)"/>
</svg>
